<svg width="40" height="23" viewBox="0 0 40 23" fill="none" xmlns="http://www.w3.org/2000/svg">
<g clip-path="url(#clip0_101_2)">
<path d="M30.3291 10.2251C30.3291 7.86657 28.6538 6.29887 24.7462 6.29887C23.595 6.29887 21.5921 6.42054 19.519 6.75748C19.4348 10.3421 19.2663 13.9315 18.8685 17.5676H21.8355L22.0039 13.0751H22.0461C22.9446 13.9034 24.2408 14.3012 25.5979 14.3012C28.2139 14.3012 30.3244 12.8879 30.3244 10.2251M27.4371 10.1924C27.4371 11.7554 26.2859 12.799 24.7837 12.799C23.45 12.799 22.5093 12.0923 22.2426 11.1611C22.2239 11.1143 22.1958 11.016 22.1537 10.8241C22.1069 10.5995 22.1162 10.3468 22.135 10.183C22.1771 9.47171 22.2566 8.81187 22.3783 8.12395C23.0709 7.95548 23.8431 7.83381 24.5731 7.83381C26.1642 7.83381 27.4371 8.43281 27.4371 10.1924Z" fill="#001432"/>
<path d="M18.3538 6.64049C17.1511 6.36439 15.9905 6.29887 15.0125 6.29887C10.8522 6.33163 8.9897 8.33922 8.9897 10.899C8.9897 13.4588 10.4451 15.2605 14.6241 15.2605C15.6021 15.2605 16.4445 15.2231 17.7829 14.947L18.1713 13.1125C17.1043 13.3699 16.1262 13.4728 15.3728 13.4728C13.1921 13.4728 12.1672 12.4761 12.1251 10.9365C12.1251 9.35471 13.1921 8.08652 15.6021 8.08652C16.4445 8.08652 17.4225 8.22223 18.5316 8.47961L18.3491 6.64049H18.3538Z" fill="#001432"/>
<path d="M19.6454 0C8.82591 0 0 5.07747 0 11.3015C0 17.5255 8.82591 22.6029 19.6454 22.6029C30.4648 22.6029 39.2907 17.5255 39.2907 11.3015C39.2907 5.07747 30.4695 0 19.6454 0ZM19.65 19.2102C9.13477 19.2102 0.561564 15.6583 0.561564 11.3015C0.561564 6.94467 9.13477 3.39278 19.65 3.39278C30.1653 3.39278 38.7432 6.94467 38.7432 11.3015C38.7432 15.6583 30.1653 19.2102 19.65 19.2102Z" fill="#001432"/>
</g>
<defs>
<clipPath id="clip0_101_2">
<rect width="40" height="23" fill="white"/>
</clipPath>
</defs>
</svg>
